<svg id="Layer_1" data-name="Layer 1" xmlns="http://www.w3.org/2000/svg" viewBox="0 0 972 456.54">
  <defs>
    <style>.cls-1{fill-rule:evenodd;color: white}</style></defs><g id="Final-concept"><g id="Group-27"><path id="COMPANY" d="M407.42,456.54a26.3,26.3,0,0,0,10.85-2.14,19,19,0,0,0,7.68-6,16.8,16.8,0,0,0,3.3-8.9h-10.2a8.94,8.94,0,0,1-2,4.28,10.42,10.42,0,0,1-4.08,2.92,14.52,14.52,0,0,1-5.55,1,13.91,13.91,0,0,1-7-1.76,12.27,12.27,0,0,1-4.86-5.27,21.15,21.15,0,0,1,0-16.94,12.46,12.46,0,0,1,4.86-5.3,14.42,14.42,0,0,1,12.38-.75,10.59,10.59,0,0,1,4.05,2.93,8.4,8.4,0,0,1,1.9,4.31h10.68a17.65,17.65,0,0,0-3.61-8.94,20.07,20.07,0,0,0-7.75-6,27.4,27.4,0,0,0-22.64.64,21,21,0,0,0-8.67,8.3,25.7,25.7,0,0,0-3.23,13.26,26,26,0,0,0,3.19,13.26,20.85,20.85,0,0,0,8.64,8.3A26.08,26.08,0,0,0,407.42,456.54Zm48.39,0a24.56,24.56,0,0,0,12.41-3.16,23,23,0,0,0,8.71-8.7,26.22,26.22,0,0,0,0-25,23,23,0,0,0-8.71-8.7,26.09,26.09,0,0,0-24.89,0,23,23,0,0,0-8.7,8.7,26.22,26.22,0,0,0,0,25,23,23,0,0,0,8.7,8.7A24.74,24.74,0,0,0,455.81,456.54Zm-.07-8.84a13.23,13.23,0,0,1-7.2-2,13.68,13.68,0,0,1-5-5.58,18.41,18.41,0,0,1,0-15.88,14,14,0,0,1,5-5.57,13.09,13.09,0,0,1,7.2-2,13.31,13.31,0,0,1,7.25,2,14,14,0,0,1,5,5.57,18.41,18.41,0,0,1,0,15.88,13.68,13.68,0,0,1-5,5.58A13.45,13.45,0,0,1,455.74,447.7ZM494.2,456V436.89q0-5.91-.54-12.51,2.1,6.25,4.42,11.7h0L506.31,456h7.55l8.22-19.92c1.54-3.59,3-7.48,4.42-11.7Q526,431,526,436.89h0V456h9.45V408.4H524l-10.07,24.14a91.08,91.08,0,0,0-3.87,11.76,73.65,73.65,0,0,0-3.81-11.76h0L496.18,408.4h-11.5V456Zm58.18,0V438.46h9.32a18.28,18.28,0,0,0,8.6-1.91,13.11,13.11,0,0,0,5.54-5.34,16.88,16.88,0,0,0,0-15.6,13.16,13.16,0,0,0-5.54-5.31,18.28,18.28,0,0,0-8.6-1.9H542.11V456Zm8.71-26h-8.71V416.9h8.71a6.13,6.13,0,0,1,6.8,6.53,6.69,6.69,0,0,1-1.7,4.66,6.59,6.59,0,0,1-5.1,1.87Zm21.52,26,3.74-10.4h17.23L607.3,456h10.61l-18.09-47.6h-9.73L572,456Zm17.9-19H589.44L595,421.59Zm29.74,19V434.38q0-5.85-.61-12.45A123.12,123.12,0,0,0,635.35,433h0l14,23h10.95V408.4H650V430a121.22,121.22,0,0,0,.68,12.45A101.7,101.7,0,0,0,645,431.38h0l-14.08-23H620.05V456Zm58.93,0V436.28l16.25-27.88H694.48l-10.4,18.36-10.4-18.36H662.73l16.18,27.88V456Z" transform="translate(0 0)"/><path id="Combined-Shape-Copy" class="cls-1" d="M192,0C298,0,384,86,384,192a191.53,191.53,0,0,1-65,144h65v48H192C86,384,0,298,0,192S86,0,192,0Zm0,48A144,144,0,1,0,336,192,144,144,0,0,0,192,48Z" transform="translate(0 0)"/><path id="Combined-Shape-Copy-2" class="cls-1" d="M708,0V161.68L900,0h72L744,192,972,384H900L708,222.32V384H660V0Z" transform="translate(0 0)"/><path id="Path-2-Copy" class="cls-1" d="M546,216H498A108,108,0,0,1,498,0H654V48H498a60,60,0,0,0,0,120h48a108,108,0,0,1,0,216H390V336H546a60,60,0,0,0,0-120Z" transform="translate(0 0)"/></g></g></svg>
